<?xml version="1.0" encoding="UTF-8"?><!DOCTYPE svg PUBLIC "-//W3C//DTD SVG 1.1//EN" "http://www.w3.org/Graphics/SVG/1.1/DTD/svg11.dtd"><svg xmlns="http://www.w3.org/2000/svg"><symbol id="icon-arr-sld_l" viewBox="0 0 451.847 451.847">
    <path d="M97.141 225.92c0-8.095 3.091-16.192 9.259-22.366L300.689 9.27c12.359-12.359 32.397-12.359 44.751 0 12.354 12.354 12.354 32.388 0 44.748L173.525 225.92l171.903 171.909c12.354 12.354 12.354 32.391 0 44.744-12.354 12.365-32.386 12.365-44.745 0l-194.29-194.281c-6.167-6.177-9.252-14.274-9.252-22.372z"/>
</symbol><symbol id="icon-arr-sld_r" viewBox="0 0 451.846 451.847">
    <path d="M345.441 248.292L151.154 442.573c-12.359 12.365-32.397 12.365-44.75 0-12.354-12.354-12.354-32.391 0-44.744L278.318 225.92 106.409 54.017c-12.354-12.359-12.354-32.394 0-44.748 12.354-12.359 32.391-12.359 44.75 0l194.287 194.284c6.177 6.18 9.262 14.271 9.262 22.366 0 8.099-3.091 16.196-9.267 22.373z"/>
</symbol><symbol id="icon-loupe" viewBox="0 0 244.487 244.487">
    <g>
        <path d="M241.877 230.131l-72.929-72.929c13.973-16.67 22.465-38.004 22.465-61.061 0-52.204-43.503-95.707-95.707-95.707S0 43.938 0 96.142s43.503 95.707 95.707 95.707c22.621 0 43.573-8.179 60.104-21.682l72.145 72.145c1.74 1.74 3.48 1.74 6.96 1.74s5.22 0 6.96-1.74c3.482-3.48 3.482-8.7.001-12.181zm-146.17-55.683c-43.503 0-78.305-34.802-78.305-78.305s34.802-78.305 78.305-78.305 78.305 34.802 78.305 78.305-34.802 78.305-78.305 78.305z"/>
        <path d="M121.809 87.442h-17.401V70.041c0-5.22-3.48-8.701-8.701-8.701-5.22 0-8.701 3.48-8.701 8.701v17.401H69.605c-5.22 0-8.701 3.48-8.701 8.701s3.48 8.701 8.701 8.701h17.401v17.401c0 5.22 3.48 8.701 8.701 8.701 5.22 0 8.701-3.48 8.701-8.701v-17.401h17.401c5.22 0 8.701-3.48 8.701-8.701s-3.481-8.701-8.701-8.701z"/>
    </g>
</symbol><symbol id="icon-timepick" viewBox="0 0 16 16">
    <path d="M0 4V0h4v4zm6 0V0h4v4zm6 0V0h4v4zM0 10V6h4v4zm6 0V6h4v4zm-6 6v-4h4v4zm6 0v-4h4v4zm6-6V6h4v4z"/>
</symbol></svg>